<svg width="199" height="44" viewBox="0 0 199 44" fill="none" xmlns="http://www.w3.org/2000/svg">
<path d="M6.19499 33.5829H4.123V20.059H6.22299C9.68399 20.059 12.551 22.2369 12.551 26.8329C12.551 31.4289 9.651 33.5829 6.19 33.5829H6.19499ZM6.369 16.2339H0.679001C0.499484 16.2358 0.327826 16.3079 0.200882 16.4348C0.0739377 16.5618 0.00182265 16.7334 0 16.913V36.7219C0.00131424 36.9014 0.0733294 37.0732 0.200439 37.1999C0.32755 37.3266 0.499506 37.3981 0.679001 37.3989H6.339C12.37 37.3989 16.821 33.521 16.821 26.832C16.821 20.143 12.402 16.2319 6.369 16.2319" fill="white"/>
<path d="M30.2951 32.1719C30.8325 32.1717 31.3579 32.3308 31.8049 32.6293C32.2518 32.9277 32.6002 33.3519 32.806 33.8484C33.0118 34.3448 33.0657 34.8912 32.961 35.4183C32.8563 35.9454 32.5976 36.4296 32.2177 36.8097C31.8377 37.1898 31.3536 37.4487 30.8265 37.5536C30.2994 37.6585 29.7531 37.6047 29.2566 37.3991C28.7601 37.1935 28.3357 36.8453 28.0371 36.3984C27.7385 35.9516 27.5791 35.4263 27.5791 34.8889C27.5836 34.1698 27.8711 33.4814 28.3795 32.9729C28.8878 32.4644 29.5761 32.1766 30.2951 32.1719Z" fill="white"/>
<path d="M44.786 25.6989H41.442V19.8189H44.786C46.876 19.8189 48.099 20.9808 48.099 22.7728C48.099 24.5068 46.876 25.6998 44.786 25.6998V25.6989ZM47.8 28.7379C49.1207 28.3997 50.2869 27.6218 51.1065 26.5323C51.9261 25.4428 52.3502 24.1066 52.309 22.7438C52.333 21.8621 52.1729 20.985 51.8391 20.1685C51.5053 19.352 51.005 18.6139 50.3701 18.0015C49.7352 17.3891 48.9797 16.9158 48.1516 16.6116C47.3236 16.3074 46.4413 16.1791 45.561 16.2349H37.972C37.7922 16.2354 37.62 16.307 37.4928 16.434C37.3656 16.561 37.2938 16.7331 37.293 16.9128V36.7189C37.2928 36.808 37.3103 36.8963 37.3444 36.9787C37.3785 37.0611 37.4285 37.1359 37.4916 37.1989C37.5547 37.2619 37.6296 37.3119 37.712 37.3458C37.7945 37.3798 37.8828 37.3971 37.972 37.3969H40.764C40.9435 37.3958 41.1153 37.324 41.2422 37.1971C41.3691 37.0702 41.4409 36.8984 41.442 36.7189V29.2479H43.591L47.408 36.7189C47.5097 36.9078 47.6567 37.0685 47.8357 37.1868C48.0148 37.3051 48.2203 37.3773 48.434 37.3969H51.648C52.018 37.3969 52.172 37.0899 51.983 36.7189L47.8 28.7379Z" fill="white"/>
<path d="M27.4333 22.5959C26.5885 22.5328 25.7435 22.7166 25.0013 23.125C24.259 23.5333 23.6514 24.1486 23.2523 24.8959V23.3889C23.2519 23.2174 23.186 23.0525 23.0682 22.9278C22.9504 22.8032 22.7895 22.728 22.6183 22.7179H20.0813C19.9054 22.7188 19.7366 22.7876 19.6103 22.9101C19.4839 23.0325 19.4098 23.199 19.4033 23.3749V36.7229C19.4059 36.9014 19.4783 37.0718 19.6051 37.1976C19.7318 37.3234 19.9028 37.3946 20.0813 37.3959H22.6923V37.3879C22.8717 37.3871 23.0436 37.3155 23.1705 37.1888C23.2975 37.062 23.3693 36.8903 23.3703 36.7109V30.6809C23.3703 27.5179 25.1333 26.5329 27.1613 26.5329C27.5626 26.5312 27.9631 26.5708 28.3563 26.6509V22.6509C28.0488 22.6157 27.7398 22.5967 27.4303 22.5939" fill="white"/>
<path d="M120.151 22.7129H117.277C117.061 22.7357 116.854 22.8084 116.671 22.9252C116.488 23.042 116.335 23.1997 116.223 23.3859L112.896 31.3089L109.296 23.3879C109.185 23.2007 109.031 23.0424 108.847 22.9257C108.663 22.8089 108.455 22.7371 108.238 22.7159H105.168C104.798 22.7159 104.659 23.0209 104.868 23.3959L110.776 35.5489L107.621 42.5149C107.433 42.8839 107.584 43.1909 107.954 43.1909H110.811C111.017 43.1724 111.215 43.1047 111.389 42.9937C111.563 42.8827 111.708 42.7315 111.811 42.5529L120.445 23.3879C120.645 23.0139 120.519 22.7189 120.152 22.7159" fill="white"/>
<path d="M132.546 28.504L130.459 28.056C129.651 27.906 129.116 27.4561 129.116 26.7391C129.116 25.9041 129.952 25.2791 130.994 25.2791C131.469 25.2388 131.944 25.3514 132.349 25.6004C132.755 25.8494 133.071 26.2218 133.25 26.663L133.255 26.658C133.272 26.7384 133.305 26.8146 133.352 26.8817C133.399 26.9488 133.46 27.0055 133.53 27.0482C133.6 27.091 133.678 27.1189 133.76 27.1302C133.841 27.1415 133.924 27.1361 134.003 27.1141L136.137 26.6351C136.296 26.5861 136.431 26.4801 136.516 26.3376C136.602 26.1952 136.632 26.0262 136.6 25.863C136.151 24.295 134.62 22.269 130.968 22.269C127.804 22.269 125.478 24.4491 125.478 27.0751C125.478 29.1321 126.759 30.836 129.593 31.46L131.538 31.91C132.666 32.146 133.119 32.685 133.119 33.342C133.119 34.117 132.488 34.8041 131.176 34.8041C130.574 34.8634 129.972 34.6977 129.485 34.3389C128.998 33.9801 128.661 33.4535 128.539 32.861H128.533C128.511 32.7866 128.464 32.7225 128.399 32.6801C128.334 32.6378 128.256 32.62 128.179 32.6301L125.679 33.1801C125.517 33.229 125.38 33.337 125.294 33.4825C125.208 33.6281 125.18 33.8007 125.215 33.9661C125.675 35.6351 127.315 37.845 131.201 37.845C135.052 37.845 136.901 35.399 136.901 33.014C136.901 30.865 135.439 29.1011 132.544 28.5051" fill="white"/>
<path d="M57.231 28.3818C57.3032 27.5707 57.6841 26.8182 58.295 26.2797C58.9059 25.7412 59.7002 25.4577 60.514 25.4879C60.9238 25.4416 61.3386 25.4817 61.7319 25.6055C62.1253 25.7293 62.4883 25.9341 62.7977 26.2067C63.107 26.4793 63.3559 26.8137 63.5281 27.1884C63.7004 27.563 63.7924 27.9695 63.798 28.3818H57.231ZM60.454 22.2668C58.455 22.4087 56.5873 23.3145 55.2383 24.7964C53.8892 26.2783 53.1622 28.2225 53.2081 30.226C53.254 32.2295 54.0693 34.1384 55.4848 35.5569C56.9004 36.9755 58.8076 37.7947 60.811 37.8448C62.1907 37.9158 63.5582 37.5543 64.7226 36.8107C65.8869 36.0671 66.7901 34.9785 67.306 33.6968C67.3216 33.542 67.2826 33.3866 67.1957 33.2574C67.1087 33.1283 66.9794 33.0337 66.83 32.9899L64.697 32.3569C64.562 32.3316 64.4226 32.3471 64.2965 32.4014C64.1704 32.4558 64.0633 32.5464 63.989 32.6619C63.7014 33.2381 63.2484 33.7153 62.6879 34.0324C62.1274 34.3495 61.485 34.4921 60.843 34.4419C59.9125 34.4759 59.0054 34.1456 58.3145 33.5214C57.6235 32.8971 57.2033 32.0281 57.143 31.0989H67.022C67.1991 31.0981 67.3688 31.0275 67.4942 30.9025C67.6196 30.7774 67.6907 30.608 67.692 30.4308C67.702 30.2538 67.709 30.0678 67.709 29.8738C67.709 25.1588 64.994 22.2659 60.456 22.2659" fill="white"/>
<path d="M77.6039 34.2009C75.5099 34.2009 73.9598 32.6509 73.9598 30.0239C73.9598 27.3969 75.5719 25.9039 77.6039 25.9039C79.6359 25.9039 81.2138 27.3678 81.2138 29.9948C81.2138 32.6518 79.6309 34.2018 77.6039 34.2018V34.2009ZM85.0678 36.7769L85.0538 23.0908V16.4678C85.0536 16.2878 84.982 16.1153 84.8547 15.988C84.7274 15.8608 84.5548 15.7891 84.3748 15.7888H81.8168C81.6538 15.7914 81.4972 15.8529 81.3759 15.9619C81.2547 16.0709 81.1768 16.22 81.1568 16.3818C81.1568 16.4118 81.1389 16.4369 81.1389 16.4689V23.9388H81.1568V24.1808C80.7378 23.4028 79.5458 22.3578 77.0089 22.3578C72.8589 22.3578 69.9648 25.7318 69.9648 30.0298C69.9648 34.4758 72.9468 37.7609 77.1288 37.7609C77.9354 37.8092 78.7405 37.6443 79.463 37.2827C80.1856 36.921 80.8001 36.3755 81.2448 35.7009C81.2448 35.7199 81.2448 35.7408 81.2448 35.7598L81.2509 35.7448C81.2509 35.9578 81.2508 36.1389 81.2648 36.3049C81.2848 36.6439 81.3189 36.9418 81.3539 37.1688V37.1619V37.1729C81.3834 37.2373 81.4295 37.2927 81.4875 37.3335C81.5454 37.3743 81.6132 37.3989 81.6838 37.4048H84.4028L84.3918 37.3889C84.5584 37.3869 84.7184 37.3242 84.8419 37.2123C84.9653 37.1005 85.0435 36.9474 85.0618 36.7819" fill="white"/>
<path d="M95.2591 34.2009C93.1671 34.2009 91.6181 32.6509 91.6181 30.0239C91.6181 27.3969 93.2241 25.9039 95.2591 25.9039C97.2941 25.9039 98.8681 27.3678 98.8681 29.9948C98.8681 32.6518 97.2871 34.2018 95.2591 34.2018V34.2009ZM102.717 36.7758L102.709 23.0908V16.4678C102.709 16.3787 102.692 16.2904 102.658 16.2079C102.624 16.1255 102.574 16.0506 102.511 15.9875C102.448 15.9244 102.373 15.8744 102.291 15.8403C102.209 15.8062 102.12 15.7887 102.031 15.7888H99.4761C99.3126 15.7911 99.1553 15.8524 99.0334 15.9614C98.9114 16.0703 98.8328 16.2196 98.8121 16.3818C98.8121 16.4118 98.7941 16.4369 98.7941 16.4689V23.9388H98.8121V24.1808C98.3931 23.4028 97.2001 22.3579 94.6631 22.3579C90.5151 22.3579 87.6211 25.7318 87.6211 30.0298C87.6211 34.4758 90.6041 37.7609 94.7851 37.7609C95.5919 37.809 96.3972 37.6439 97.12 37.2823C97.8428 36.9208 98.4578 36.3753 98.9031 35.7009V35.7598L98.9111 35.7448C98.9111 35.9578 98.9111 36.1389 98.9231 36.3049C98.9441 36.6439 98.9781 36.9418 99.0131 37.1688V37.1619V37.1729C99.0427 37.2374 99.089 37.293 99.1471 37.3337C99.2053 37.3745 99.2733 37.3991 99.3441 37.4048H102.063L102.051 37.3889C102.218 37.388 102.378 37.3254 102.501 37.2133C102.624 37.1012 102.702 36.9476 102.718 36.7819" fill="white"/>
<path d="M126.658 18.8669C126.766 18.5943 126.822 18.304 126.824 18.0108C126.827 17.5545 126.702 17.1064 126.463 16.7178C126.224 16.3291 125.88 16.0157 125.471 15.8132C125.062 15.6107 124.604 15.5275 124.15 15.5729C123.696 15.6183 123.264 15.7905 122.903 16.0699C122.542 16.3494 122.267 16.7247 122.11 17.153C121.952 17.5813 121.918 18.0453 122.012 18.4919C122.105 18.9386 122.323 19.3499 122.639 19.6788C122.956 20.0077 123.358 20.2409 123.801 20.3518L122.479 23.3108C122.474 23.3311 122.471 23.3519 122.471 23.3728C122.471 23.4054 122.477 23.4376 122.49 23.4676C122.502 23.4977 122.521 23.5249 122.544 23.5479C122.567 23.5708 122.594 23.589 122.624 23.6014C122.654 23.6137 122.686 23.62 122.719 23.6199V23.6258H124.045C124.116 23.6189 124.185 23.5952 124.246 23.5566C124.306 23.518 124.356 23.4657 124.393 23.4038L126.612 18.9878C126.629 18.9498 126.643 18.9119 126.657 18.8739V18.8659" fill="white"/>
<path d="M170.741 41.9709V12.4149C170.691 10.2634 170.034 8.16983 168.847 6.3751C167.659 4.58038 165.989 3.15741 164.028 2.26988C162.722 1.69351 161.323 1.35487 159.898 1.26988C152.728 0.890877 147.187 5.1319 145.709 10.8549C145.252 12.7693 145.21 14.7596 145.586 16.6916C145.963 18.6236 146.749 20.4524 147.892 22.0548C150.837 26.3769 162.944 37.8409 168.792 42.9479C168.974 43.0814 169.19 43.1621 169.415 43.181C169.64 43.1998 169.866 43.1562 170.068 43.0548C170.269 42.9534 170.439 42.7983 170.559 42.6065C170.678 42.4147 170.742 42.1937 170.743 41.9679L170.741 41.9709ZM168.219 28.3959C168.219 28.8251 168.091 29.2446 167.852 29.6014C167.614 29.9581 167.275 30.236 166.878 30.4001C166.481 30.5641 166.045 30.6069 165.624 30.523C165.203 30.4391 164.816 30.2322 164.513 29.9286C164.209 29.625 164.003 29.2383 163.919 28.8173C163.835 28.3963 163.878 27.9599 164.042 27.5633C164.207 27.1667 164.485 26.8277 164.842 26.5891C165.198 26.3505 165.618 26.2231 166.047 26.2229C166.623 26.2231 167.176 26.4522 167.583 26.8597C167.99 27.2671 168.219 27.8197 168.219 28.3959Z" fill="white"/>
<path d="M179.815 26.6729C178.749 26.6734 177.707 26.9901 176.821 27.5827C175.935 28.1753 175.244 29.0174 174.836 30.0024C174.429 30.9875 174.322 32.0712 174.531 33.1167C174.739 34.1622 175.252 35.1225 176.006 35.8762C176.76 36.6299 177.72 37.1433 178.766 37.3513C179.811 37.5593 180.895 37.4526 181.88 37.0448C182.865 36.637 183.707 35.9463 184.299 35.0601C184.892 34.1738 185.208 33.1319 185.209 32.0659C185.209 31.3575 185.07 30.656 184.799 30.0015C184.528 29.347 184.13 28.7523 183.629 28.2515C183.128 27.7506 182.534 27.3534 181.879 27.0825C181.225 26.8116 180.523 26.6725 179.815 26.6729Z" fill="white"/>
<path d="M174.42 38.9089C174.052 38.9089 173.692 39.018 173.386 39.2225C173.08 39.4269 172.841 39.7176 172.7 40.0576C172.559 40.3976 172.523 40.7717 172.594 41.1326C172.666 41.4936 172.843 41.8252 173.103 42.0855C173.363 42.3458 173.695 42.5231 174.056 42.595C174.417 42.667 174.791 42.6303 175.131 42.4896C175.471 42.3489 175.762 42.1105 175.966 41.8046C176.171 41.4987 176.28 41.139 176.281 40.7709C176.281 40.5265 176.233 40.2844 176.139 40.0585C176.046 39.8326 175.909 39.6273 175.736 39.4543C175.563 39.2814 175.358 39.1442 175.132 39.0507C174.906 38.9571 174.664 38.9089 174.42 38.9089Z" fill="white"/>
<path d="M190.081 13.5559C188.664 13.5565 187.279 13.9771 186.102 14.7645C184.924 15.552 184.006 16.6709 183.464 17.9799C182.922 19.2889 182.78 20.7292 183.057 22.1187C183.333 23.5083 184.015 24.7847 185.017 25.7866C186.018 26.7886 187.295 27.4711 188.684 27.7479C190.074 28.0246 191.514 27.8833 192.823 27.3417C194.132 26.8001 195.251 25.8825 196.039 24.7049C196.827 23.5273 197.248 22.1427 197.249 20.7259C197.25 19.7843 197.065 18.8517 196.705 17.9816C196.345 17.1114 195.817 16.3208 195.151 15.6549C194.486 14.989 193.695 14.4608 192.825 14.1006C191.955 13.7405 191.023 13.5554 190.081 13.5559Z" fill="white"/>
<path d="M195.066 4.729C194.322 4.729 193.595 4.9495 192.977 5.36261C192.358 5.77572 191.877 6.36293 191.592 7.04993C191.307 7.73692 191.233 8.49289 191.378 9.22223C191.523 9.95157 191.881 10.6215 192.407 11.1474C192.932 11.6733 193.602 12.0314 194.332 12.1766C195.061 12.3218 195.817 12.2475 196.504 11.9631C197.191 11.6786 197.778 11.1969 198.191 10.5787C198.605 9.96048 198.825 9.23367 198.826 8.49005C198.826 7.49275 198.43 6.53623 197.724 5.83093C197.019 5.12564 196.063 4.72927 195.066 4.729Z" fill="white"/>
<path d="M180.683 13.762C182.044 13.763 183.375 13.3603 184.507 12.6048C185.639 11.8493 186.522 10.775 187.043 9.51773C187.565 8.26048 187.702 6.87677 187.437 5.54165C187.172 4.20654 186.517 2.98 185.555 2.01718C184.593 1.05435 183.367 0.398506 182.032 0.132596C180.697 -0.133315 179.313 0.00262225 178.056 0.523282C176.798 1.04394 175.723 1.9259 174.967 3.05758C174.21 4.18927 173.807 5.51986 173.807 6.88101C173.808 8.70469 174.533 10.4534 175.822 11.7434C177.111 13.0334 178.859 13.7593 180.683 13.762Z" fill="white"/>
<path d="M180.953 19.819C180.953 20.6279 180.713 21.4185 180.264 22.091C179.814 22.7635 179.175 23.2876 178.428 23.597C177.681 23.9064 176.858 23.9872 176.065 23.8293C175.272 23.6714 174.543 23.2818 173.971 22.7097C173.399 22.1377 173.01 21.409 172.852 20.6156C172.694 19.8222 172.775 18.9999 173.085 18.2526C173.394 17.5053 173.919 16.8666 174.591 16.4172C175.264 15.9679 176.055 15.728 176.863 15.728C177.948 15.7283 178.989 16.1594 179.756 16.9266C180.523 17.6938 180.953 18.7342 180.953 19.819Z" fill="white"/>
</svg>
